<svg width="27" height="26" viewBox="0 0 27 26" fill="none" xmlns="http://www.w3.org/2000/svg">
<g clipPath="url(#clip0_156_1578)">
<path d="M24.5347 9.40209L23.0966 7.96395L23.9439 7.08221C24.0323 6.99384 24.0765 6.89445 24.0765 6.78405C24.0765 6.67364 24.0323 6.57437 23.9439 6.48623L20.0138 2.55607C19.9256 2.4677 19.8264 2.42351 19.716 2.42351C19.6055 2.42351 19.5062 2.4677 19.4178 2.55607L18.536 3.40339L17.0635 1.93082L17.9638 0.996054C18.43 0.529874 19.0047 0.302523 19.6881 0.314C20.3714 0.325476 20.9461 0.564304 21.4123 1.03048L25.4695 5.08769C25.9357 5.55387 26.1688 6.12288 26.1688 6.79472C26.1688 7.46656 25.9357 8.03557 25.4695 8.50175L24.5347 9.40209ZM9.00175 24.9695C8.53557 25.4357 7.96656 25.6688 7.29472 25.6688C6.62288 25.6688 6.05387 25.4357 5.58769 24.9695L1.58351 20.965C1.10837 20.4901 0.870809 19.9035 0.870809 19.2053C0.870809 18.507 1.10837 17.9204 1.58351 17.4452L2.43082 16.5979L3.90338 18.0705L3.03472 18.9178C2.94635 19.0062 2.90217 19.1055 2.90217 19.216C2.90217 19.3264 2.94635 19.4256 3.03472 19.5138L6.98623 23.4653C7.07437 23.5536 7.17364 23.5978 7.28405 23.5978C7.39445 23.5978 7.49384 23.5536 7.58221 23.4653L8.42952 22.5966L9.90209 24.0692L9.00175 24.9695ZM22.5378 14.5005L24.3017 12.7366C24.39 12.6482 24.4342 12.5467 24.4342 12.4319C24.4342 12.3171 24.39 12.2156 24.3017 12.1272L14.3728 2.19834C14.2844 2.10997 14.1829 2.06579 14.0681 2.06579C13.9533 2.06579 13.8518 2.10997 13.7634 2.19834L11.9995 3.96218C11.9114 4.05055 11.8673 4.14982 11.8673 4.26C11.8673 4.3704 11.9114 4.46979 11.9995 4.55816L21.9418 14.5005C22.0302 14.5886 22.1296 14.6327 22.24 14.6327C22.3502 14.6327 22.4494 14.5886 22.5378 14.5005ZM13.2022 23.8361L14.966 22.0509C15.0542 21.9628 15.0982 21.8635 15.0982 21.7531C15.0982 21.6427 15.0542 21.5434 14.966 21.4553L5.04473 11.534C4.95659 11.4458 4.85732 11.4018 4.74691 11.4018C4.63651 11.4018 4.53724 11.4458 4.4491 11.534L2.66391 13.2978C2.57554 13.3862 2.53136 13.4878 2.53136 13.6025C2.53136 13.7173 2.57554 13.8189 2.66391 13.9072L12.5928 23.8361C12.6811 23.9245 12.7827 23.9686 12.8975 23.9686C13.0122 23.9686 13.1138 23.9245 13.2022 23.8361ZM12.6114 16.1768L16.6638 12.1458L14.3542 9.83625L10.3232 13.8886L12.6114 16.1768ZM14.6613 25.2873C14.1864 25.7624 13.5985 26 12.8975 26C12.1965 26 11.6085 25.7624 11.1336 25.2873L1.2127 15.3664C0.737566 14.8915 0.5 14.3035 0.5 13.6025C0.5 12.9015 0.737566 12.3136 1.2127 11.8387L2.97654 10.0614C3.45144 9.58652 4.03801 9.34907 4.73624 9.34907C5.43471 9.34907 6.02139 9.58652 6.49629 10.0614L8.8506 12.4161L12.903 8.36403L10.5483 6.03072C10.0734 5.55582 9.83598 4.96558 9.83598 4.26C9.83598 3.55465 10.0734 2.96452 10.5483 2.48962L12.3256 0.712697C12.8005 0.237566 13.3871 0 14.0853 0C14.7835 0 15.3701 0.237566 15.845 0.712697L25.7873 10.655C26.2624 11.1299 26.5 11.7165 26.5 12.4147C26.5 13.1129 26.2624 13.6995 25.7873 14.1744L24.0104 15.9517C23.5355 16.4266 22.9454 16.664 22.24 16.664C21.5344 16.664 20.9442 16.4266 20.4693 15.9517L18.136 13.597L14.0839 17.6494L16.4386 20.0037C16.9135 20.4786 17.1509 21.0653 17.1509 21.7638C17.1509 22.462 16.9135 23.0486 16.4386 23.5235L14.6613 25.2873Z" fill="#FFF7ED"/>
</g>
<defs>
<clipPath id="clip0_156_1578">
<rect width="26" height="26" fill="white" transform="translate(0.5)"/>
</clipPath>
</defs>
</svg>
