<svg width="25" height="24" viewBox="0 0 25 24" fill="none" xmlns="http://www.w3.org/2000/svg">
<path d="M4.1 21.9017H8.78475V14.8537C8.78475 14.4956 8.90597 14.1953 9.1484 13.9529C9.39107 13.7106 9.6916 13.5895 10.05 13.5895H14.95C15.3084 13.5895 15.6089 13.7106 15.8516 13.9529C16.094 14.1953 16.2153 14.4956 16.2153 14.8537V21.9017H20.9V9.5273C20.9 9.45573 20.8843 9.3908 20.8528 9.33251C20.8215 9.27423 20.7789 9.22259 20.725 9.17759L12.7558 3.19232C12.684 3.12961 12.5987 3.09825 12.5 3.09825C12.4013 3.09825 12.316 3.12961 12.2442 3.19232L4.275 9.17759C4.2211 9.22259 4.17852 9.27423 4.14725 9.33251C4.11575 9.3908 4.1 9.45573 4.1 9.5273V21.9017ZM2 21.9017V9.5273C2 9.127 2.0896 8.7478 2.2688 8.3897C2.44823 8.03136 2.69603 7.73632 3.0122 7.50458L10.9817 1.50568C11.4239 1.16856 11.9293 1 12.4979 1C13.0665 1 13.5733 1.16856 14.0183 1.50568L21.9878 7.50458C22.304 7.73632 22.5518 8.03136 22.7312 8.3897C22.9104 8.7478 23 9.127 23 9.5273V21.9017C23 22.4739 22.7931 22.9666 22.3794 23.38C21.9658 23.7933 21.4726 24 20.9 24H15.3808C15.0222 24 14.7217 23.8788 14.4792 23.6363C14.2366 23.3941 14.1153 23.0938 14.1153 22.7355V15.6878H10.8848V22.7355C10.8848 23.0938 10.7634 23.3941 10.5208 23.6363C10.2783 23.8788 9.97778 24 9.61915 24H4.1C3.5274 24 3.03425 23.7933 2.62055 23.38C2.20685 22.9666 2 22.4739 2 21.9017Z" fill="#E8EAED"/>
</svg>
