<svg width="40" height="40" viewBox="0 0 40 40" fill="none" xmlns="http://www.w3.org/2000/svg">
<path d="M7.17954 32.5C6.3376 32.5 5.62496 32.2083 5.04163 31.625C4.45829 31.0417 4.16663 30.329 4.16663 29.4871V10.5129C4.16663 9.67097 4.45829 8.95833 5.04163 8.375C5.62496 7.79167 6.3376 7.5 7.17954 7.5H32.8204C33.6623 7.5 34.375 7.79167 34.9583 8.375C35.5416 8.95833 35.8333 9.67097 35.8333 10.5129V29.4871C35.8333 30.329 35.5416 31.0417 34.9583 31.625C34.375 32.2083 33.6623 32.5 32.8204 32.5H7.17954ZM33.3333 12.4038L20.8108 20.42C20.6827 20.4925 20.5502 20.5496 20.4133 20.5913C20.2766 20.6329 20.1388 20.6538 20 20.6538C19.8611 20.6538 19.7233 20.6329 19.5866 20.5913C19.4497 20.5496 19.3172 20.4925 19.1891 20.42L6.66663 12.4038V29.4871C6.66663 29.6368 6.71468 29.7597 6.81079 29.8558C6.9069 29.9519 7.02982 30 7.17954 30H32.8204C32.9701 30 33.093 29.9519 33.1891 29.8558C33.2852 29.7597 33.3333 29.6368 33.3333 29.4871V12.4038ZM20 18.3333L33.077 10H6.92288L20 18.3333ZM6.66663 12.7883V10.8829V10.9325V10.8796V12.7883Z" fill="#FFF7ED"/>
</svg>
