<svg width="27" height="26" viewBox="0 0 27 26" fill="none" xmlns="http://www.w3.org/2000/svg">
<path d="M4.67647 26C3.64902 26 2.77941 25.6629 2.06765 24.9887C1.35588 24.3145 1 23.4908 1 22.5176V20.2944C1 19.9353 1.12684 19.6357 1.38051 19.3956C1.63395 19.1553 1.95025 19.0352 2.32941 19.0352H5.41177V0.489975C5.41177 0.345339 5.47353 0.248527 5.59706 0.199541C5.72059 0.150323 5.83885 0.170404 5.95184 0.259786L7.03235 1.1088C7.16054 1.21234 7.29914 1.26411 7.44816 1.26411C7.59694 1.26411 7.73542 1.21234 7.8636 1.1088L9.09669 0.155314C9.22488 0.0517704 9.36348 0 9.5125 0C9.66152 0 9.80012 0.0517704 9.92831 0.155314L11.1614 1.1088C11.2896 1.21234 11.4281 1.26411 11.5768 1.26411C11.7259 1.26411 11.8645 1.21234 11.9926 1.1088L13.2257 0.155314C13.3539 0.0517704 13.4925 0 13.6415 0C13.7903 0 13.9288 0.0517704 14.057 0.155314L15.2901 1.1088C15.4183 1.21234 15.5569 1.26411 15.7059 1.26411C15.8549 1.26411 15.9935 1.21234 16.1217 1.1088L17.3548 0.155314C17.483 0.0517704 17.6214 0 17.7702 0C17.9192 0 18.0578 0.0517704 18.186 0.155314L19.4191 1.1088C19.5473 1.21234 19.6859 1.26411 19.8349 1.26411C19.9837 1.26411 20.1222 1.21234 20.2504 1.1088L21.4835 0.155314C21.6116 0.0517704 21.7502 0 21.8993 0C22.0483 0 22.1869 0.0517704 22.3151 0.155314L23.5482 1.1088C23.6763 1.21234 23.8148 1.26411 23.9636 1.26411C24.1126 1.26411 24.2512 1.21234 24.3794 1.1088L25.4599 0.259786C25.5729 0.170404 25.6912 0.150323 25.8147 0.199541C25.9382 0.248527 26 0.345339 26 0.489975V22.5176C26 23.4908 25.6441 24.3145 24.9324 24.9887C24.2206 25.6629 23.351 26 22.3235 26H4.67647ZM22.3235 23.9106C22.7402 23.9106 23.0895 23.7771 23.3713 23.5101C23.6532 23.2431 23.7941 22.9123 23.7941 22.5176V3.01611H7.61765V19.0352H19.5239C19.9028 19.0352 20.219 19.1553 20.4724 19.3956C20.7261 19.6357 20.8529 19.9353 20.8529 20.2944V22.5176C20.8529 22.9123 20.9939 23.2431 21.2757 23.5101C21.5576 23.7771 21.9069 23.9106 22.3235 23.9106ZM10.4739 6.15028H16.611C16.9238 6.15028 17.1858 6.25034 17.3971 6.45046C17.6081 6.65035 17.7136 6.89853 17.7136 7.195C17.7136 7.49147 17.6081 7.73965 17.3971 7.93954C17.1858 8.13966 16.9238 8.23972 16.611 8.23972H10.4739C10.1609 8.23972 9.8989 8.13966 9.68787 7.93954C9.47659 7.73965 9.37096 7.49147 9.37096 7.195C9.37096 6.89853 9.47659 6.65035 9.68787 6.45046C9.8989 6.25034 10.1609 6.15028 10.4739 6.15028ZM10.4739 10.3292H16.611C16.9238 10.3292 17.1858 10.4292 17.3971 10.6294C17.6081 10.8292 17.7136 11.0774 17.7136 11.3739C17.7136 11.6704 17.6081 11.9185 17.3971 12.1184C17.1858 12.3186 16.9238 12.4186 16.611 12.4186H10.4739C10.1609 12.4186 9.8989 12.3186 9.68787 12.1184C9.47659 11.9185 9.37096 11.6704 9.37096 11.3739C9.37096 11.0774 9.47659 10.8292 9.68787 10.6294C9.8989 10.4292 10.1609 10.3292 10.4739 10.3292ZM20.768 8.42708C20.408 8.42708 20.1011 8.30705 19.8474 8.067C19.594 7.82671 19.4673 7.53605 19.4673 7.195C19.4673 6.85396 19.594 6.56329 19.8474 6.32301C20.1011 6.08295 20.408 5.96293 20.768 5.96293C21.1281 5.96293 21.4349 6.08295 21.6886 6.32301C21.9423 6.56329 22.0691 6.85396 22.0691 7.195C22.0691 7.53605 21.9423 7.82671 21.6886 8.067C21.4349 8.30705 21.1281 8.42708 20.768 8.42708ZM20.768 12.606C20.408 12.606 20.1011 12.4859 19.8474 12.2459C19.594 12.0056 19.4673 11.7149 19.4673 11.3739C19.4673 11.0328 19.594 10.7422 19.8474 10.5019C20.1011 10.2618 20.408 10.1418 20.768 10.1418C21.1281 10.1418 21.4349 10.2618 21.6886 10.5019C21.9423 10.7422 22.0691 11.0328 22.0691 11.3739C22.0691 11.7149 21.9423 12.0056 21.6886 12.2459C21.4349 12.4859 21.1281 12.606 20.768 12.606ZM4.67647 23.9106H18.6471V21.1246H3.20588V22.5176C3.20588 22.9123 3.34681 23.2431 3.62868 23.5101C3.91054 23.7771 4.2598 23.9106 4.67647 23.9106Z" fill="#FFF7ED"/>
</svg>
