<svg width="28" height="28" viewBox="0 0 28 28" fill="none" xmlns="http://www.w3.org/2000/svg">
<path d="M7.41475 10.154V2C7.41475 1.71667 7.51235 1.47922 7.70756 1.28767C7.90276 1.09589 8.14457 1 8.43296 1C8.72159 1 8.96328 1.09589 9.15803 1.28767C9.35301 1.47922 9.4505 1.71667 9.4505 2V10.154H11.3298V2C11.3298 1.71667 11.4273 1.47922 11.6223 1.28767C11.8175 1.09589 12.0594 1 12.3481 1C12.6364 1 12.8781 1.09589 13.0731 1.28767C13.2679 1.47922 13.3652 1.71667 13.3652 2V10.154C13.3652 11.3471 12.9882 12.374 12.234 13.2347C11.4797 14.0953 10.5518 14.6428 9.4505 14.877V26C9.4505 26.2833 9.3529 26.5208 9.15769 26.7123C8.96248 26.9041 8.72068 27 8.43228 27C8.14366 27 7.90197 26.9041 7.70722 26.7123C7.51224 26.5208 7.41475 26.2833 7.41475 26V14.877C6.31341 14.6428 5.38556 14.0953 4.6312 13.2347C3.87707 12.374 3.5 11.3471 3.5 10.154V2C3.5 1.71667 3.5976 1.47922 3.79281 1.28767C3.98779 1.09589 4.22959 1 4.51821 1C4.80661 1 5.0483 1.09589 5.24328 1.28767C5.43803 1.47922 5.53541 1.71667 5.53541 2V10.154H7.41475ZM20.4642 16.3333H17.9867C17.6359 16.3333 17.3434 16.2179 17.1093 15.987C16.8754 15.7559 16.7585 15.4697 16.7585 15.1283V7.33333C16.7585 5.658 17.2517 4.18367 18.2382 2.91033C19.2246 1.63678 20.2267 1 21.2446 1C21.6258 1 21.9303 1.13422 22.1583 1.40267C22.3861 1.67089 22.5 2.00767 22.5 2.413V26C22.5 26.2833 22.4024 26.5208 22.2072 26.7123C22.0122 26.9041 21.7704 27 21.4818 27C21.1934 27 20.9517 26.9041 20.7567 26.7123C20.5617 26.5208 20.4642 26.2833 20.4642 26V16.3333Z" fill="#FFF7ED"/>
</svg>
